<svg xmlns="http://www.w3.org/2000/svg" xmlns:xlink="http://www.w3.org/1999/xlink" width="100" height="100" viewBox="0 0 100 100"><rect width="100%" height="100%" fill="#FFFFFF"></rect><g transform="translate(50 50) scale(0.69 0.69) rotate(0) translate(-50 -50)" style="fill:#51A7F9"><svg fill="#51A7F9" xmlns="http://www.w3.org/2000/svg" xmlns:xlink="http://www.w3.org/1999/xlink" xml:space="preserve" version="1.1" style="shape-rendering:geometricPrecision;text-rendering:geometricPrecision;image-rendering:optimizeQuality;" viewBox="0 0 846.66 846.66" x="0px" y="0px" fill-rule="evenodd" clip-rule="evenodd"><defs><style type="text/css">
   
    .fil0 {fill:#51A7F9;fill-rule:nonzero}
   
  </style></defs><g><path class="fil0" d="M717.78 452.28l-28.15 48.76c53.63,9.86 86.73,52.79 56.65,121.85 -10.16,-30.63 -21.3,-71.62 -81.08,-79.53l-18.91 32.76c43.43,15.1 66.86,55.91 40.03,117.5 -9.1,-27.45 -19,-63.21 -63.98,-76.03l-16.88 29.24c30.48,19.48 43.42,56.56 20.88,108.31 -7.58,-22.87 -15.71,-51.52 -44.23,-67.86l-8.75 15.16 -300.05 0 -8.76 -15.16c-28.52,16.34 -36.65,44.99 -44.23,67.86 -22.55,-51.75 -9.59,-88.83 20.88,-108.31l-16.88 -29.24c-44.98,12.83 -54.88,48.58 -63.98,76.03 -26.83,-61.59 -3.4,-102.4 40.04,-117.5l-18.92 -32.76c-59.79,7.91 -70.93,48.9 -81.09,79.53 -30.09,-69.06 3.02,-112 56.66,-121.85l-28.14 -48.75 31.91 -24.39c-69.43,-58.24 -141.06,-138.64 -138.82,-211.28 3.06,-100.01 135.99,-163.09 210.99,-99.54 -93.11,17.31 -80.33,63.58 -86.15,109.98 45.81,13.57 52.91,-29.46 59.2,-61.52 59.07,72.61 10.82,123.7 -33.7,145.23 -12.9,6.23 24.86,35.31 62.11,60.85l56.74 -43.38c88.24,-2.06 176.08,-2.05 264.32,0l56.74 43.37c37.25,-25.53 75,-54.61 62.1,-60.84 -44.52,-21.53 -92.77,-72.62 -33.7,-145.23 6.3,32.06 13.4,75.09 59.2,61.52 -5.81,-46.4 6.96,-92.67 -86.15,-109.98 75.01,-63.55 207.93,-0.47 211,99.54 2.23,72.64 -69.39,153.03 -138.81,211.27l31.91 24.39zm-202.71 110.07c-28.92,-173.43 -229.04,-94.16 -232.19,-68.14 117.63,-22.21 219.8,30.8 232.19,68.14zm42.99 -22.59c29.21,-180.8 -149.78,-132.36 -179.27,-102.33 117.63,-22.21 166.89,64.98 179.27,102.33zm94.69 -74.39l-114.76 -87.71c-76.58,-1.75 -152.75,-1.75 -229.33,0l-114.75 87.71 108.01 187.07 242.82 0 108.01 -187.07z"></path></g></svg></g></svg>